<svg width="60" height="60" viewBox="0 0 60 60" fill="none" xmlns="http://www.w3.org/2000/svg">
<g clip-path="url(#clip0_105153_4954)">
<path d="M49.8288 25.2145L30.6154 36.1587C30.2695 36.3621 29.8424 36.3621 29.4864 36.1587L10.2729 25.2145C9.52027 24.7873 9.52027 23.699 10.2729 23.2616L29.4864 12.3174C29.8322 12.1139 30.2594 12.1139 30.6154 12.3174L49.8288 23.2616C50.5815 23.6888 50.5815 24.7771 49.8288 25.2145Z" fill="white"/>
<path d="M46.5028 28.8965V37.9184C46.5028 38.3252 46.2892 38.6914 45.9332 38.8948L30.6154 47.6217C30.2696 47.8251 29.8424 47.8251 29.4864 47.6217L14.1685 38.8948C13.8125 38.6914 13.5989 38.3252 13.5989 37.9184V28.8965L22.0919 33.7278L29.4864 37.9489C29.8322 38.1523 30.2594 38.1523 30.6154 37.9489L38.0099 33.7278L46.5028 28.8965Z" fill="white"/>
<path d="M55.4535 14.0058L55.9824 13.6397C56.6232 13.1921 56.5418 12.2259 55.84 11.8902L51.6291 9.88648C50.9171 9.55083 50.1136 10.1102 50.1746 10.8934L50.5815 15.5417C50.6527 16.3147 51.5376 16.7317 52.1783 16.2842L52.931 15.7654C59.6237 26.5469 57.8234 40.9087 48.4659 49.6559C39.2609 58.2608 25.0721 59.3084 14.7279 52.1479C14.0363 51.6698 13.0802 51.8427 12.6022 52.5344C12.1241 53.226 12.297 54.1821 12.9887 54.6602C18.1048 58.1998 24.0549 59.939 29.9949 59.939C37.4301 59.939 44.8449 57.2131 50.551 51.8834C60.9968 42.1089 63.0107 26.0282 55.4535 14.0058Z" fill="white"/>
<path d="M47.113 5.27897C35.5992 -2.69527 19.8033 -1.52558 9.55075 8.05571C-1.15954 18.0744 -3.0819 34.0838 4.9025 46.3096L4.16 46.8182C3.51922 47.2657 3.60059 48.232 4.3024 48.5677L8.51328 50.5714C9.22527 50.907 10.0288 50.3476 9.96777 49.5644L9.56092 44.9162C9.48972 44.1432 8.60483 43.7262 7.96404 44.1737L7.41479 44.5602C0.315285 33.5855 2.03422 19.2542 11.6358 10.2832C20.8408 1.67835 35.0296 0.620548 45.3738 7.79126C46.0654 8.2693 47.0215 8.09639 47.4996 7.40475C47.9776 6.71311 47.8047 5.75701 47.113 5.27897Z" fill="white"/>
</g>
<defs>
<clipPath id="clip0_105153_4954">
<rect width="60" height="59.939" fill="white"/>
</clipPath>
</defs>
</svg>
