<svg width="350" height="89" viewBox="0 0 350 89" fill="none" xmlns="http://www.w3.org/2000/svg">
<rect x="221" width="18" height="14" rx="2" fill="#7C28BD"/>
<path d="M318.64 19.32C321.573 19.32 324.107 19.9333 326.24 21.16C326.862 21.5021 327.441 21.8827 327.977 22.3018C328.992 23.0957 331.12 22.4089 331.12 21.1203C331.12 20.4353 331.675 19.88 332.36 19.88H346.8C347.905 19.88 348.8 20.7754 348.8 21.88V64.2C348.8 68.4133 348.027 72.2533 346.48 75.72C344.933 79.1867 342.427 81.96 338.96 84.04C335.547 86.12 331.147 87.16 325.76 87.16C318.507 87.16 312.747 85.4533 308.48 82.04C304.81 79.1135 302.516 75.2564 301.598 70.4687C301.375 69.3059 302.308 68.28 303.492 68.28H317.088C318.038 68.28 318.8 68.9938 319.326 69.7849C320.22 71.1283 321.938 71.8 324.48 71.8C326.56 71.8 328.187 71.2667 329.36 70.2C330.533 69.1333 331.12 67.1333 331.12 64.2C331.12 62.7961 328.774 62.0272 327.652 62.8708C327.209 63.2038 326.738 63.5135 326.24 63.8C324.107 64.9733 321.573 65.56 318.64 65.56C315.12 65.56 311.947 64.6533 309.12 62.84C306.293 60.9733 304.053 58.3067 302.4 54.84C300.8 51.32 300 47.1867 300 42.44C300 37.6933 300.8 33.5867 302.4 30.12C304.053 26.6 306.293 23.9333 309.12 22.12C311.947 20.2533 315.12 19.32 318.64 19.32ZM331.12 42.44C331.12 40.04 330.507 38.1733 329.28 36.84C328.053 35.5067 326.48 34.84 324.56 34.84C322.64 34.84 321.067 35.5067 319.84 36.84C318.613 38.1733 318 40.04 318 42.44C318 44.84 318.613 46.7067 319.84 48.04C321.067 49.3733 322.64 50.04 324.56 50.04C326.48 50.04 328.053 49.3733 329.28 48.04C330.507 46.7067 331.12 44.84 331.12 42.44Z" fill="white"/>
<path d="M278.631 19.56C283.805 19.56 287.831 21.2933 290.711 24.76C293.645 28.2267 295.111 32.92 295.111 38.84V63C295.111 64.1046 294.216 65 293.111 65H279.431C278.327 65 277.431 64.1046 277.431 63V41.08C277.431 38.9467 276.845 37.2667 275.671 36.04C274.551 34.76 273.031 34.12 271.111 34.12C269.138 34.12 267.591 34.76 266.471 36.04C265.351 37.2667 264.791 38.9467 264.791 41.08V63C264.791 64.1046 263.896 65 262.791 65H249.031C247.927 65 247.031 64.1046 247.031 63V21.88C247.031 20.7754 247.927 19.88 249.031 19.88H263.218C264.087 19.88 264.791 20.5843 264.791 21.4532C264.791 23.0191 267.13 23.8333 268.366 22.8711C268.973 22.3979 269.622 21.9609 270.311 21.56C272.658 20.2267 275.431 19.56 278.631 19.56Z" fill="white"/>
<path d="M237.01 19.88C238.115 19.88 239.01 20.7754 239.01 21.88V63C239.01 64.1046 238.115 65 237.01 65H223.25C222.145 65 221.25 64.1046 221.25 63V21.88C221.25 20.7754 222.145 19.88 223.25 19.88H237.01Z" fill="white"/>
<path d="M197.069 19.56C202.242 19.56 206.269 21.2933 209.149 24.76C212.082 28.2267 213.549 32.92 213.549 38.84V63C213.549 64.1046 212.653 65 211.549 65H197.869C196.764 65 195.869 64.1046 195.869 63V41.08C195.869 38.9467 195.282 37.2667 194.109 36.04C192.989 34.76 191.469 34.12 189.549 34.12C187.575 34.12 186.029 34.76 184.909 36.04C183.789 37.2667 183.229 38.9467 183.229 41.08V63C183.229 64.1046 182.333 65 181.229 65H167.469C166.364 65 165.469 64.1046 165.469 63V21.88C165.469 20.7754 166.364 19.88 167.469 19.88H181.656C182.524 19.88 183.229 20.5843 183.229 21.4532C183.229 23.0191 185.568 23.8333 186.803 22.8711C187.411 22.3979 188.059 21.9609 188.749 21.56C191.095 20.2267 193.869 19.56 197.069 19.56Z" fill="white"/>
<path d="M141.288 19.56C146.461 19.56 150.488 21.2933 153.368 24.76C156.301 28.2267 157.768 32.92 157.768 38.84V63C157.768 64.1046 156.872 65 155.768 65H142.087C140.983 65 140.087 64.1046 140.087 63V41.08C140.087 38.9467 139.501 37.2667 138.327 36.04C137.207 34.76 135.688 34.12 133.768 34.12C131.794 34.12 130.248 34.76 129.128 36.04C128.008 37.2667 127.447 38.9467 127.447 41.08V63C127.447 64.1046 126.552 65 125.447 65H111.687C110.583 65 109.688 64.1046 109.688 63V21.88C109.688 20.7754 110.583 19.88 111.688 19.88H125.874C126.743 19.88 127.447 20.5843 127.447 21.4532C127.447 23.0191 129.786 23.8333 131.022 22.8711C131.629 22.3979 132.278 21.9609 132.967 21.56C135.314 20.2267 138.088 19.56 141.288 19.56Z" fill="white"/>
<path d="M104.071 42.04C104.071 42.6517 104.051 43.2501 104.011 43.8352C103.943 44.8282 103.091 45.56 102.096 45.56H77.4123C76.2539 45.56 75.3036 46.5541 75.597 47.6747C76.2473 50.1582 77.7652 51.4 80.1506 51.4C81.6356 51.4 82.8015 50.8736 83.6484 49.8209C84.1287 49.2237 84.7972 48.76 85.5636 48.76H100.671C101.933 48.76 102.885 49.9193 102.49 51.1178C101.74 53.3909 100.587 55.485 99.0306 57.4C97.0039 59.9067 94.4173 61.9067 91.2706 63.4C88.1773 64.84 84.7639 65.56 81.0306 65.56C76.5506 65.56 72.5506 64.6267 69.0306 62.76C65.5639 60.8933 62.8439 58.2267 60.8706 54.76C58.9506 51.24 57.9906 47.1333 57.9906 42.44C57.9906 37.7467 58.9506 33.6667 60.8706 30.2C62.8439 26.68 65.5639 23.9867 69.0306 22.12C72.5506 20.2533 76.5506 19.32 81.0306 19.32C85.5106 19.32 89.4839 20.2533 92.9506 22.12C96.4706 23.9333 99.1906 26.5467 101.111 29.96C103.084 33.3733 104.071 37.4 104.071 42.04ZM84.0706 37.8C85.1752 37.8 86.1465 36.8619 85.7131 35.8459C85.4731 35.2833 85.1123 34.8147 84.6306 34.44C83.6706 33.64 82.4706 33.24 81.0306 33.24C78.7848 33.24 77.2045 34.0143 76.2899 35.5628C75.6579 36.6329 76.6492 37.8 77.892 37.8H84.0706Z" fill="white"/>
<path d="M50.4 8.35999C51.5046 8.35999 52.4 9.25542 52.4 10.36V63C52.4 64.1046 51.5046 65 50.4 65H36.64C35.5354 65 34.64 64.1046 34.64 63V44.92C34.64 43.8154 33.7446 42.92 32.64 42.92H19.76C18.6554 42.92 17.76 43.8154 17.76 44.92V63C17.76 64.1046 16.8646 65 15.76 65H2C0.89543 65 0 64.1046 0 63V10.36C0 9.25542 0.895431 8.35999 2 8.35999H15.76C16.8646 8.35999 17.76 9.25542 17.76 10.36V26.76C17.76 27.8646 18.6554 28.76 19.76 28.76H32.64C33.7446 28.76 34.64 27.8646 34.64 26.76V10.36C34.64 9.25541 35.5354 8.35999 36.64 8.35999H50.4Z" fill="white"/>
<path d="M346.52 19.5C347.9 19.5 349.02 20.6193 349.02 22V64.3203C349.019 68.596 348.234 72.5065 346.656 76.0439C345.065 79.6103 342.486 82.4598 338.938 84.5889C335.424 86.7293 330.926 87.7802 325.48 87.7803C318.151 87.7803 312.268 86.0552 307.888 82.5508V82.5498C304.121 79.5459 301.766 75.5821 300.826 70.6826C300.538 69.1804 301.747 67.9004 303.212 67.9004H316.808C318.019 67.9004 318.913 68.8005 319.463 69.6279C320.219 70.7654 321.725 71.4199 324.2 71.4199C326.195 71.4199 327.688 70.9096 328.743 69.9502C329.752 69.0329 330.34 67.2221 330.34 64.3203V22C330.34 20.6193 331.459 19.5001 332.84 19.5H346.52Z" fill="#70E61C" stroke="#70E61C"/>
</svg>
